<svg width="655" height="683" viewBox="0 0 655 683" fill="none" xmlns="http://www.w3.org/2000/svg">
<g clip-path="url(#clip0)">
<path d="M620 635.614C620 661.294 481.21 682.114 310 682.114C138.79 682.114 0 661.294 0 635.614C0 617.434 69.57 601.684 170.96 594.044C212.77 590.884 260.01 589.114 310 589.114C330.55 589.114 350.63 589.414 370.05 589.984C512.52 594.184 620 613.013 620 635.614Z" fill="#6C62DC"/>
<path opacity="0.1" d="M270 645.114C335.722 645.114 389 638.622 389 630.614C389 622.605 335.722 616.114 270 616.114C204.278 616.114 151 622.605 151 630.614C151 638.622 204.278 645.114 270 645.114Z" fill="black"/>
<path d="M269.5 641.114C331.632 641.114 382 587.388 382 521.114C382 454.839 331.632 401.114 269.5 401.114C207.368 401.114 157 454.839 157 521.114C157 587.388 207.368 641.114 269.5 641.114Z" fill="#4D4D52"/>
<path d="M305 592.114H235V656.114H305V592.114Z" fill="#6C63FF"/>
<path d="M396.5 607.614L392.5 629.614L418.5 633.614L435.5 623.614L434.5 607.614H396.5Z" fill="#575A89"/>
<path d="M268 198.58C268 198.58 266 221.58 261 222.58C256 223.58 272 263.58 272 263.58H296L315 258.58L306 236.58C306 236.58 294 220.58 303 207.58C312 194.58 268 198.58 268 198.58Z" fill="#F7B38E"/>
<path opacity="0.1" d="M267.968 198.58C267.968 198.58 265.968 221.58 260.968 222.58C255.968 223.58 271.968 263.58 271.968 263.58H295.968L314.968 258.58L305.968 236.58C305.968 236.58 293.968 220.58 302.968 207.58C311.968 194.58 267.968 198.58 267.968 198.58Z" fill="#F7B38E"/>
<path d="M215.5 370.614C215.5 370.614 189.5 420.614 210.5 430.614C231.5 440.614 236.5 439.614 236.5 442.614C236.5 445.614 232.5 444.614 234.5 449.614C236.5 454.614 230.5 474.614 236.5 486.614C242.5 498.614 240.5 507.614 240.5 507.614C240.5 507.614 240.5 508.614 242.5 512.614C244.5 516.614 245.5 519.614 244.5 521.614C243.5 523.614 237.5 536.614 243.5 539.614C249.5 542.614 280.5 544.614 283.5 539.614C286.5 534.614 280.5 531.614 283.5 528.614C286.5 525.614 288.5 524.614 286.5 522.614C284.5 520.614 282.5 495.614 282.5 495.614C282.5 495.614 287.5 466.614 285.5 462.614C283.5 458.614 280.5 454.614 282.5 451.614C284.5 448.614 286.5 449.614 287.5 445.614C288.5 441.614 290.5 432.614 290.5 432.614L301.5 431.614L327.5 436.614C327.5 436.614 356.5 468.614 388.5 478.614C388.5 478.614 397.5 487.614 400.5 487.614C403.5 487.614 403.5 487.614 402.5 489.614C401.5 491.614 398.5 491.614 400.5 493.614C402.5 495.614 405.5 492.614 403.5 495.614C401.5 498.614 399.5 498.614 401.5 500.614C403.5 502.614 400.5 513.614 400.5 514.614C400.5 515.614 391.5 609.614 394.5 611.614C397.5 613.614 439.5 619.614 442.5 611.614C445.5 603.614 440.5 593.614 440.5 593.614C440.5 593.614 455.5 473.614 451.5 465.614C447.5 457.614 433.5 421.614 358.5 398.614C358.5 398.614 337.5 394.614 337.5 391.614C337.5 388.614 335.5 369.614 331.5 368.614C327.5 367.614 304.5 366.614 304.5 366.614L275.5 375.614L235.5 368.614L215.5 370.614Z" fill="#2F2E41"/>
<path d="M250.5 538.614L245.5 556.614C245.5 556.614 241.5 585.614 246.5 592.614C250.427 598.112 257.44 604.844 270.444 606.026C274.089 606.36 277.739 605.44 280.79 603.419C283.841 601.397 286.11 598.395 287.223 594.908C287.372 594.491 287.465 594.055 287.5 593.614C287.5 591.614 284.5 567.614 284.5 567.614L279.5 542.614L278.5 535.614L250.5 538.614Z" fill="#2F2E41"/>
<path d="M396.5 624.614C396.5 624.614 391.5 619.614 390.5 624.614C389.5 629.614 385.5 650.614 392.5 651.614C399.5 652.614 466.5 662.614 473.5 658.614C480.5 654.614 493.5 648.614 485.5 645.614C477.5 642.614 454.5 633.614 454.5 633.614C454.5 633.614 441.5 616.614 439.5 615.614C437.5 614.614 426.5 616.614 421.5 620.614C416.5 624.614 396.5 624.614 396.5 624.614Z" fill="#2F2E41"/>
<path d="M289.5 215.614C306.621 215.614 320.5 201.734 320.5 184.614C320.5 167.493 306.621 153.614 289.5 153.614C272.379 153.614 258.5 167.493 258.5 184.614C258.5 201.734 272.379 215.614 289.5 215.614Z" fill="#F7B38E"/>
<path d="M286.5 254.614L274.5 241.614L261.199 215.614C261.199 215.614 251.5 212.614 249.5 217.614C247.5 222.614 211.5 238.614 211.5 238.614C211.5 238.614 220.5 322.614 216.5 330.614C212.5 338.614 205.5 370.614 211.5 373.614C217.5 376.614 245.5 373.614 254.5 377.614C263.5 381.614 289.5 381.614 296.5 376.614C303.5 371.614 305.5 367.614 312.5 370.614C318.459 373.168 332.391 285.853 336.402 259.833C336.74 257.647 336.459 255.411 335.592 253.377C334.724 251.343 333.305 249.592 331.494 248.323C322.521 242.029 306.361 231.183 303.5 232.614C299.5 234.614 286.5 254.614 286.5 254.614Z" fill="#575A89"/>
<path d="M329.5 250.614C331.848 251.201 333.961 252.492 335.553 254.315C337.146 256.137 338.143 258.404 338.411 260.809L346.5 333.614C346.5 333.614 326.5 376.614 316.5 347.614C306.5 318.614 329.5 250.614 329.5 250.614Z" fill="#575A89"/>
<path d="M327.5 340.614L349.5 334.614C349.5 334.614 353.5 362.614 357.5 362.614C361.5 362.614 343.5 378.614 334.5 376.614C325.5 374.614 312.5 367.614 311.5 362.614C310.5 357.614 320.5 336.614 320.5 336.614L327.5 340.614Z" fill="#575A89"/>
<path d="M267.023 192C269.172 187.739 268.798 182.769 270.575 178.371C271.526 176.017 273.07 173.892 275.086 172.162C277.102 170.433 279.535 169.146 282.196 168.402C284.856 167.658 287.672 167.478 290.423 167.874C293.173 168.271 295.785 169.234 298.054 170.688C300.339 172.154 302.63 174.213 305.42 173.933C308.424 173.632 311.104 170.618 313.866 171.722C316.927 172.947 316.1 177.88 319.202 179.019C320.834 179.619 322.763 178.696 323.705 177.355C324.528 175.946 324.977 174.384 325.016 172.793C325.444 168.883 325.831 164.745 323.945 161.201C323.152 160 322.46 158.746 321.877 157.452C323.705 154.5 321.808 149.243 321.877 148C321.86 143.404 309.94 128.471 307.368 124.5C304.514 120.093 298.054 144 301.368 129.5C268.848 113.562 283.019 131.508 277.368 131.938C251.708 124.111 262.306 137.5 263.868 144C262.868 144.657 259.66 140.255 258.98 141.186C258.334 142.292 257.877 143.479 257.626 144.708C256.034 150.535 256.017 152.151 252.89 157.452C251.387 159.699 251.455 163.015 250.522 165.5C249.742 168.025 252.89 170.688 250.522 173.933C253.282 173.933 251.22 178.864 252.89 180.308C254.546 181.74 255.32 184.493 257.154 185.576C258.755 186.523 260.673 185.855 262.306 186.858C264.402 188.145 264.554 190.968 267.023 192Z" fill="#2F2E41"/>
<path d="M291.5 269.614L294.5 263.614C294.5 263.614 338.5 276.614 347.5 288.614C347.5 288.614 369.5 274.614 381.5 276.614L393.5 278.614L356.5 311.614L309.5 307.614L291.5 269.614Z" fill="#F2F2F2"/>
<path d="M289.5 263.614L248.5 320.614L307.5 349.614C307.5 349.614 313.016 352.614 317.258 349.614L356.5 331.614L393.5 278.614L356.5 297.614C356.5 297.614 352.5 289.614 344.5 293.614L289.5 263.614Z" fill="#6C63FF"/>
<path d="M352.5 364.614L360.5 343.614C360.5 343.614 378.5 320.614 368.5 309.614C358.5 298.614 347.5 341.614 347.5 341.614L352.5 364.614Z" fill="#F7B38E"/>
<path d="M260.198 361.262L277.654 347.11C277.654 347.11 304.764 336.245 301.632 321.713C298.501 307.18 267.412 338.858 267.412 338.858L260.198 361.262Z" fill="#F7B38E"/>
<path opacity="0.1" d="M217 260.114H216C216 260.114 200.5 241.614 197.5 266.614C194.5 291.614 184.5 374.614 210.5 377.614C236.5 380.614 255 365.114 255 365.114C255 365.114 274 336.114 267 336.114C263.613 336.114 254.402 334.592 246 335.114C237.037 335.67 228.984 338.194 229.5 335.614C230.5 330.614 245 267.114 217 260.114Z" fill="black"/>
<path d="M215.5 240.614L211.5 238.614C211.5 238.614 195.5 241.614 192.5 266.614C189.5 291.614 179.5 374.614 205.5 377.614C231.5 380.614 266.5 373.614 266.5 373.614C266.5 373.614 273.5 335.614 266.5 335.614C259.5 335.614 223.5 340.614 224.5 335.614C225.5 330.614 243.5 247.614 215.5 240.614Z" fill="#575A89"/>
<path d="M338 353.114L349.027 336.213L356 364.114L338 372.114V353.114Z" fill="#575A89"/>
<path d="M111.473 112.114C126.385 112.114 138.473 100.025 138.473 85.1135C138.473 70.2018 126.385 58.1135 111.473 58.1135C96.5615 58.1135 84.4731 70.2018 84.4731 85.1135C84.4731 100.025 96.5615 112.114 111.473 112.114Z" fill="#F2F2F2"/>
<path d="M143.473 286.114H79.4731V350.114H143.473V286.114Z" fill="#F2F2F2"/>
<path d="M372 0L388.199 28.057L404.397 56.114H372H339.603L355.801 28.057L372 0Z" fill="#F2F2F2"/>
</g>
<defs>
<clipPath id="clip0">
<rect width="654.237" height="682.114" fill="white"/>
</clipPath>
</defs>
</svg>
