<svg width="974" height="588" viewBox="0 0 974 588" fill="none" xmlns="http://www.w3.org/2000/svg">
<g clip-path="url(#clip0)">
<path d="M562.877 448.199C560.605 448.199 558.383 448.873 556.494 450.135C554.604 451.398 553.132 453.192 552.262 455.292C551.392 457.392 551.165 459.702 551.608 461.931C552.052 464.159 553.146 466.207 554.753 467.814C556.36 469.421 558.407 470.515 560.636 470.958C562.865 471.402 565.175 471.174 567.274 470.304C569.374 469.435 571.168 467.962 572.431 466.073C573.694 464.183 574.367 461.962 574.367 459.689C574.367 456.642 573.157 453.719 571.002 451.564C568.847 449.41 565.925 448.199 562.877 448.199ZM562.877 466.76C561.479 466.76 560.112 466.345 558.949 465.568C557.786 464.791 556.88 463.687 556.345 462.395C555.809 461.103 555.669 459.681 555.942 458.31C556.215 456.938 556.889 455.678 557.877 454.689C558.866 453.7 560.126 453.027 561.498 452.754C562.87 452.481 564.291 452.621 565.583 453.156C566.875 453.691 567.98 454.598 568.757 455.761C569.534 456.923 569.948 458.291 569.948 459.689V459.689C569.948 461.564 569.203 463.363 567.877 464.689C566.551 466.015 564.753 466.76 562.877 466.76V466.76Z" fill="#E4E4E4"/>
<path d="M518.684 439.36H562.877V483.099C562.877 484.626 562.271 486.09 561.191 487.17C560.112 488.249 558.647 488.856 557.12 488.856H524.441C522.914 488.856 521.45 488.249 520.37 487.17C519.291 486.09 518.684 484.626 518.684 483.099V439.36V439.36Z" fill="#E4E4E4"/>
<path d="M666.133 489.857H1.89629C1.64995 489.83 1.42227 489.713 1.25687 489.528C1.09147 489.344 1 489.105 1 488.857C1 488.609 1.09147 488.37 1.25687 488.186C1.42227 488.001 1.64995 487.884 1.89629 487.857H666.133C666.38 487.884 666.607 488.001 666.773 488.186C666.938 488.37 667.03 488.609 667.03 488.857C667.03 489.105 666.938 489.344 666.773 489.528C666.607 489.713 666.38 489.83 666.133 489.857V489.857Z" fill="#CACACA"/>
<path d="M90.4099 470.967L86.3019 491.28L162.695 516.794L168.759 486.814L90.4099 470.967Z" fill="#FFB6B6"/>
<path d="M98.0903 467.128L89.9991 507.13L89.9987 507.132C88.6306 513.893 84.633 519.834 78.8851 523.647C73.1373 527.461 66.11 528.835 59.349 527.468L58.5206 527.3L71.7684 461.804L98.0903 467.128Z" fill="#2F2E41"/>
<path d="M176.979 191.17C205.627 191.17 228.85 167.947 228.85 139.299C228.85 110.651 205.627 87.428 176.979 87.428C148.332 87.428 125.108 110.651 125.108 139.299C125.108 167.947 148.332 191.17 176.979 191.17Z" fill="#FEB8B8"/>
<path d="M225.427 94.549C217.672 81.9558 205.533 72.6764 191.346 68.497L184.978 73.144V67.11C181.571 66.5885 178.123 66.3876 174.678 66.51L169.184 71.481V66.923C161.05 67.9338 153.213 70.6191 146.168 74.8095C139.123 78.9999 133.023 84.6045 128.252 91.27C116.321 108.47 114.307 132.399 126.042 149.737C129.263 139.837 133.173 130.548 136.395 120.649C138.927 120.994 141.493 121.007 144.028 120.686L147.947 111.541L149.042 120.299C161.19 119.241 179.208 116.917 190.724 114.788L189.604 108.069L196.304 113.652C199.832 112.84 201.927 112.103 201.754 111.54C210.319 125.348 220.801 134.167 229.365 147.975C232.618 128.505 236.362 112.316 225.427 94.549Z" fill="#2F2E41"/>
<path d="M193.856 478.732C267.619 478.732 327.416 462.006 327.416 441.373C327.416 420.74 267.619 404.014 193.856 404.014C120.093 404.014 60.2963 420.74 60.2963 441.373C60.2963 462.006 120.093 478.732 193.856 478.732Z" fill="#2F2E41"/>
<path d="M288.539 272.687C286.755 261.956 284.916 251.019 279.928 241.352C276.65 235.02 271.447 228.986 264.433 227.734C263.052 227.611 261.694 227.297 260.399 226.8C258.343 225.81 230.725 210.044 226.335 207.298C222.566 204.941 216.617 200.576 213.617 200.576C210.599 200.509 199.026 203.203 153.857 199.672C146.259 202.722 138.901 206.339 131.846 210.494C131.701 210.398 84.9644 235.495 83.2086 235.429C79.8834 235.289 76.7926 237.418 74.8863 240.099C72.9805 242.78 72.0865 246.099 71.1505 249.308C81.3585 272.041 90.6983 294.803 100.907 317.536C101.385 318.392 101.639 319.355 101.646 320.336C101.44 321.354 101.006 322.311 100.376 323.136C95.3692 331.178 95.5284 341.293 96.0753 350.745C96.6226 360.197 97.2994 370.181 93.0753 378.653C91.9263 380.979 90.4322 383.108 89.3394 385.434C86.7804 390.702 85.8555 407.551 87.3502 413.211L274.617 418.576C270.59 407.508 288.539 272.687 288.539 272.687Z" fill="#7272EA"/>
<path d="M54.9633 318.544C54.5897 321.247 54.552 323.986 54.8513 326.698L57.5353 365.244C57.7873 368.877 58.0353 372.501 58.3763 376.125C59.0203 383.158 59.9823 390.135 61.1763 397.102C61.2033 398.091 61.6216 399.029 62.3395 399.71C63.0573 400.392 64.0161 400.76 65.0053 400.735C76.8203 403.235 89.0273 403.135 101.085 402.454C119.485 401.427 166.559 399.484 169.435 395.748C172.311 392.012 170.635 385.969 166.885 382.948C163.135 379.927 101.014 372.562 101.014 372.562C101.621 367.752 103.452 363.222 105.189 358.655C108.309 350.555 111.223 342.189 111.279 333.512C111.335 324.835 108.066 315.712 100.958 310.741C95.1113 306.66 87.5833 305.903 80.4583 306.071C75.2743 306.22 66.3173 304.978 61.5823 307.005C57.8353 308.655 55.6633 314.875 54.9633 318.544Z" fill="#FBBEBE"/>
<path d="M288.871 405.677C291.981 404.491 295.409 404.92 298.743 405.369C309.475 406.835 320.365 408.339 330.312 412.626C334.982 414.626 339.428 417.296 342.585 421.226C345.385 424.766 347.021 429.1 348.572 433.368L352.159 443.194C353.684 446.885 354.736 450.755 355.288 454.71C356.409 466.469 348.367 477.555 338.252 483.664C328.137 489.773 316.229 491.948 304.628 494.227C293.027 496.506 281.381 499.027 269.828 501.699C264.439 503.097 258.972 504.173 253.455 504.921C241.089 506.321 228.163 504.258 216.413 508.349C211.743 509.984 207.157 512.412 202.313 513.542C199.093 514.219 195.838 514.715 192.562 515.027L170.324 517.567C165.802 518.172 161.25 518.521 156.688 518.613C146.975 518.613 137.42 516.313 127.988 514.013C126.986 513.837 126.032 513.452 125.188 512.883C123.694 511.706 123.367 509.623 123.152 507.737C122.2 499.387 121.366 491.028 120.652 482.66C120.428 479.942 120.26 477 121.745 474.712C123.613 471.912 127.256 471.032 130.581 470.49C144.681 468.183 158.964 467.192 173.246 467.529C178.672 462.103 187.62 462.075 194.728 459.123C197.343 457.922 199.874 456.546 202.303 455.004C215.017 447.586 229.225 443.097 243.893 441.863C246.766 441.775 249.62 441.368 252.402 440.649C257.902 438.94 262.919 434.288 268.569 435.428C269.269 433.495 269.755 430.907 271.369 429.581C272.169 428.899 273.162 428.442 273.9 427.713C275.46 426.135 275.6 423.65 275.366 421.446C275.132 419.242 274.609 416.982 275.179 414.833C275.416 414.02 275.765 413.243 276.216 412.526C279.008 407.694 283.239 405.21 288.871 405.677Z" fill="#2F2E41"/>
<path d="M70.6103 250C69.7007 250.953 68.9952 252.081 68.5373 253.316C60.9877 270.331 56.5284 288.554 55.3683 307.132C55.3887 308.038 55.1799 308.934 54.7613 309.738C54.3486 310.273 53.8891 310.77 53.3883 311.223C52.9518 311.741 52.6214 312.339 52.4161 312.984C52.2108 313.629 52.1346 314.309 52.1919 314.983C52.2492 315.658 52.4387 316.315 52.7498 316.916C53.0609 317.518 53.4874 318.052 54.005 318.489C54.0899 318.56 54.177 318.629 54.2663 318.695C55.8073 315.795 59.4963 314.847 62.7753 314.595C78.4753 313.353 93.8113 320.657 109.558 320.106C108.447 316.267 106.849 312.578 105.943 308.693C101.936 291.442 111.93 272.66 105.803 256.044C104.579 252.719 102.534 249.45 99.3123 247.993C97.9782 247.455 96.582 247.085 95.1563 246.893C91.1773 246.174 83.2563 243.101 79.4093 244.334C77.9893 244.792 77.4293 246.127 76.2523 246.934C74.4643 248.076 72.0924 248.496 70.6103 250Z" fill="#7272EA"/>
<path d="M288.651 307.005C283.916 304.978 274.959 306.22 269.775 306.071C262.65 305.903 255.122 306.66 249.275 310.741C242.167 315.712 238.898 324.835 238.954 333.512C239.01 342.189 241.924 350.555 245.044 358.655C246.781 363.222 248.612 367.752 249.219 372.562C249.219 372.562 187.098 379.927 183.348 382.948C179.598 385.969 177.922 392.012 180.798 395.748C183.674 399.484 273.413 403.235 285.228 400.735C286.217 400.76 287.176 400.392 287.894 399.71C288.612 399.029 289.03 398.091 289.057 397.102C290.251 390.135 291.213 383.158 291.857 376.125C292.198 372.501 292.446 368.877 292.698 365.244L295.382 326.698C295.682 323.986 295.644 321.247 295.27 318.544C294.57 314.875 292.398 308.655 288.651 307.005Z" fill="#FBBEBE"/>
<path d="M273.981 246.934C272.804 246.127 272.244 244.792 270.824 244.334C266.977 243.101 259.056 246.174 255.077 246.893C253.652 247.085 252.255 247.455 250.921 247.993C247.699 249.45 245.654 252.719 244.43 256.044C238.303 272.66 248.297 291.442 244.29 308.693C243.384 312.578 241.786 316.267 240.675 320.106C256.422 320.657 271.758 313.353 287.458 314.595C290.737 314.847 294.426 315.795 295.967 318.695C296.057 318.629 296.144 318.56 296.229 318.489C296.746 318.052 297.173 317.518 297.484 316.916C297.795 316.315 297.984 315.658 298.042 314.983C298.099 314.309 298.023 313.629 297.817 312.984C297.612 312.339 297.282 311.741 296.845 311.223C296.344 310.77 295.885 310.273 295.472 309.738C295.054 308.934 294.845 308.038 294.865 307.132C293.705 288.554 289.246 270.331 281.696 253.316C281.238 252.081 280.533 250.953 279.623 250C278.141 248.496 275.769 248.076 273.981 246.934Z" fill="#7272EA"/>
<path d="M300.243 499.964L297.513 520.507L216.975 519.752L221.005 489.432L300.243 499.964Z" fill="#FFB6B6"/>
<path d="M320.853 497.371L312.049 563.611L311.211 563.5C304.374 562.591 298.177 559.003 293.984 553.525C289.792 548.048 287.947 541.129 288.855 534.291L288.855 534.29L294.232 493.833L320.853 497.371Z" fill="#2F2E41"/>
<path d="M110.769 416.073C110.769 417.007 109.303 416.073 109.169 415.073C108.142 407.517 102.145 401.287 95.1594 398.261C88.1734 395.235 80.2154 395.076 72.6504 395.795C61.2094 396.878 48.3664 401.259 44.1824 411.953C43.1924 414.453 33.9184 436.713 34.8234 441.719C37.2614 455.075 46.3954 466.498 57.4634 474.409C68.5314 482.32 81.4634 487.046 94.3634 491.309C128.47 502.557 163.462 510.915 198.97 516.293C204.723 517.162 210.533 517.965 216.043 519.814C220.974 521.467 225.588 523.942 230.408 525.885C241.616 530.385 253.674 531.993 265.619 533.572C267.655 533.834 269.99 534.02 271.494 532.638C273.437 530.838 272.794 527.697 272.241 525.11C270.214 515.273 271.915 505.034 277.014 496.381C279.014 493.019 281.614 489.572 281.236 485.681C280.788 481.142 276.267 477.929 271.765 477.2C267.263 476.471 262.687 477.546 258.165 478.134C256.616 478.49 254.992 478.329 253.542 477.676C252.87 477.222 252.261 476.683 251.73 476.07C248.616 473.066 244.631 471.125 240.345 470.526C236.06 469.927 231.695 470.701 227.876 472.736C226.204 473.67 223.676 471.587 221.936 470.803L202.294 461.911C179.729 451.703 157.052 441.447 133.179 434.984C131.274 434.609 129.464 433.857 127.855 432.77C126.669 431.836 125.819 430.57 124.726 429.529C122.344 427.278 119.026 426.381 116.171 424.784C113.316 423.187 110.115 419.276 110.769 416.073Z" fill="#2F2E41"/>
<path d="M161.617 402.576C169.349 402.576 175.617 396.308 175.617 388.576C175.617 380.844 169.349 374.576 161.617 374.576C153.885 374.576 147.617 380.844 147.617 388.576C147.617 396.308 153.885 402.576 161.617 402.576Z" fill="#FBBEBE"/>
<path d="M192.617 402.576C200.349 402.576 206.617 396.308 206.617 388.576C206.617 380.844 200.349 374.576 192.617 374.576C184.885 374.576 178.617 380.844 178.617 388.576C178.617 396.308 184.885 402.576 192.617 402.576Z" fill="#FBBEBE"/>
<path d="M279.035 420.123H86.6965C84.4509 420.12 82.298 419.227 80.7101 417.639C79.1222 416.052 78.2289 413.899 78.2263 411.653V294.967C78.2289 292.721 79.1222 290.568 80.7101 288.98C82.298 287.393 84.4509 286.5 86.6965 286.497H279.035C281.281 286.5 283.434 287.393 285.022 288.98C286.61 290.568 287.503 292.721 287.506 294.967V411.653C287.503 413.899 286.61 416.052 285.022 417.639C283.434 419.227 281.281 420.12 279.035 420.123Z" fill="#3F3D56"/>
<path d="M182.399 358.914C185.494 358.914 188.003 356.405 188.003 353.31C188.003 350.215 185.494 347.706 182.399 347.706C179.304 347.706 176.795 350.215 176.795 353.31C176.795 356.405 179.304 358.914 182.399 358.914Z" fill="white"/>
<path d="M344.202 149.404C353.702 149.404 361.404 141.702 361.404 132.202C361.404 122.702 353.702 115 344.202 115C334.702 115 327 122.702 327 132.202C327 141.702 334.702 149.404 344.202 149.404Z" fill="#7272EA"/>
<path d="M547.244 151.984C556.745 151.984 564.446 144.282 564.446 134.782C564.446 125.282 556.745 117.58 547.244 117.58C537.744 117.58 530.042 125.282 530.042 134.782C530.042 144.282 537.744 151.984 547.244 151.984Z" fill="#7272EA"/>
<path d="M591.202 261.404C600.702 261.404 608.404 253.702 608.404 244.202C608.404 234.702 600.702 227 591.202 227C581.702 227 574 234.702 574 244.202C574 253.702 581.702 261.404 591.202 261.404Z" fill="#3F3D56"/>
<path d="M778.202 261.404C787.702 261.404 795.404 253.702 795.404 244.202C795.404 234.702 787.702 227 778.202 227C768.702 227 761 234.702 761 244.202C761 253.702 768.702 261.404 778.202 261.404Z" fill="#CCCCCC"/>
<path d="M721.202 115.404C730.702 115.404 738.404 107.702 738.404 98.202C738.404 88.7016 730.702 81 721.202 81C711.702 81 704 88.7016 704 98.202C704 107.702 711.702 115.404 721.202 115.404Z" fill="#7272EA"/>
<path d="M956.259 175.398C965.76 175.398 973.461 167.696 973.461 158.196C973.461 148.696 965.76 140.994 956.259 140.994C946.759 140.994 939.057 148.696 939.057 158.196C939.057 167.696 946.759 175.398 956.259 175.398Z" fill="#7272EA"/>
<path d="M881.202 261.404C890.702 261.404 898.404 253.702 898.404 244.202C898.404 234.702 890.702 227 881.202 227C871.702 227 864 234.702 864 244.202C864 253.702 871.702 261.404 881.202 261.404Z" fill="#7272EA"/>
<path d="M445.202 98.404C454.702 98.404 462.404 90.7024 462.404 81.202C462.404 71.7016 454.702 64 445.202 64C435.702 64 428 71.7016 428 81.202C428 90.7024 435.702 98.404 445.202 98.404Z" fill="#E6E6E6"/>
<path d="M863.744 121.818C873.245 121.818 880.946 114.116 880.946 104.616C880.946 95.1156 873.245 87.414 863.744 87.414C854.244 87.414 846.542 95.1156 846.542 104.616C846.542 114.116 854.244 121.818 863.744 121.818Z" fill="#E6E6E6"/>
</g>
<defs>
<clipPath id="clip0">
<rect width="973.461" height="587.025" fill="white"/>
</clipPath>
</defs>
</svg>
