<svg width="799" height="690" viewBox="0 0 799 690" fill="none" xmlns="http://www.w3.org/2000/svg">
<path d="M436.642 207.941C477.255 207.941 510.178 175.018 510.178 134.405C510.178 93.7922 477.255 60.869 436.642 60.869C396.029 60.869 363.106 93.7922 363.106 134.405C363.106 175.018 396.029 207.941 436.642 207.941Z" fill="#FCDEB2"/>
<path d="M395.191 164C395.191 164 405.616 271.719 389.578 283.81C373.541 295.901 485 297 485 297C485 297 460.142 203.57 471.368 174.992L395.191 164Z" fill="#FCDEB2"/>
<path d="M603 279.739L590.89 336.593L565.283 456.879L564.516 463.466L555.679 539.728L549.801 590.39L545.859 624.421C521.893 637.12 504.524 645.886 504.524 645.886C504.524 645.886 503.03 638.163 500.621 628.282C483.803 633.481 452.681 642.106 426.307 643.829C435.911 654.865 440.325 665.232 434.338 672.884C416.271 695.95 341.682 647.629 315.593 629.61C314.986 633.924 314.755 638.286 314.905 642.643L294.94 626.813L296.916 590.39L300.249 528.762L304.436 451.477C303.116 448.168 302.009 444.772 301.123 441.312C295.009 418.895 287.588 374.131 281.896 336.593C277.315 306.383 273.875 280.854 273.147 275.422C273.049 274.713 273 274.348 273 274.348L383.518 224C391.372 242.779 428.047 248.424 428.047 248.424C458.432 246.265 482.249 229.746 482.249 229.746L603 279.739Z" fill="#D0CDE1"/>
<path d="M516.92 624.636C516.92 624.636 512.16 626.266 504.42 628.576C487.31 633.706 455.65 642.216 428.82 643.916C405.72 645.396 386.2 641.836 382.63 626.766C381.1 620.286 383.27 614.956 388 610.576C402.12 597.486 439 592.796 468.25 591.186C476.51 590.736 484.15 590.526 490.51 590.446C501.31 590.306 508.39 590.526 508.39 590.526L508.56 591.186L516.92 624.636Z" fill="#A0616A"/>
<path d="M375.467 64.8467L361.717 59.3423C361.717 59.3423 390.466 27.6915 430.465 30.4438L419.215 18.0586C419.215 18.0586 446.714 7.04976 471.713 35.9482C484.854 51.1394 500.059 68.996 509.537 89.1112H524.262L518.117 102.643L539.626 116.175L517.549 113.744C518.864 121.154 519.066 128.719 518.148 136.189C517.201 143.661 513.388 150.473 507.513 155.187V155.187C507.513 155.187 490.462 119.891 490.462 114.387V128.148C490.462 128.148 476.712 115.763 476.712 107.506L469.213 117.139L465.463 102.002L419.215 117.139L426.714 104.754L397.966 108.883L409.215 93.7452C409.215 93.7452 376.717 111.635 375.467 126.772C374.217 141.909 364.704 156.253 364.704 156.253C364.704 156.253 339.218 85.4885 375.467 64.8467Z" fill="#2F2E41"/>
<path d="M688.5 542.566C681.01 550.686 662.45 562.916 639.95 576.156C631.58 581.076 622.67 586.146 613.58 591.186C591.89 603.216 569.18 615.136 550.44 624.766C526.06 637.296 508.39 645.946 508.39 645.946C508.39 645.946 506.87 638.326 504.42 628.576C501.14 615.526 496.2 598.656 491.05 591.186C490.87 590.926 490.69 590.686 490.51 590.446C489.01 588.476 487.5 587.326 486.01 587.326L560.43 541.196L592.59 521.256L569.42 465.946L540.36 396.566L557.9 340.756L575.53 284.656H608.57C608.57 284.656 619.51 308.536 633.5 341.836C635.59 346.816 637.75 352.006 639.95 357.366C668.73 427.366 704.61 525.116 688.5 542.566Z" fill="#D0CDE1"/>
<path d="M436.99 672.586C418.61 695.346 342.73 647.666 316.19 629.886C310.41 626.016 306.97 623.566 306.97 623.566L331.25 591.186L338.94 580.936C338.94 580.936 345.82 584.586 355.99 590.526C356.36 590.746 356.73 590.966 357.11 591.186C365.88 596.336 376.89 603.066 388 610.576C403.33 620.946 418.83 632.776 428.82 643.916C438.59 654.806 443.08 665.036 436.99 672.586Z" fill="#A0616A"/>
<path d="M355.99 590.526C353.276 590.516 350.567 590.736 347.89 591.186C324.9 595.136 318.12 615.946 316.19 629.886C315.572 634.143 315.338 638.447 315.49 642.746L295.18 627.126L287.78 621.436C269.97 615.226 254.1 604.196 240.34 591.186C228.403 579.7 217.695 567.001 208.39 553.296C199.122 539.788 190.86 525.616 183.67 510.896C181.664 506.788 180.586 502.29 180.512 497.719C180.437 493.148 181.369 488.617 183.24 484.446L208.39 428.396L245.15 346.476C245.42 344.526 245.717 342.619 246.04 340.756C253.33 298.956 272.86 280.396 272.86 280.396H287.78L297.76 340.756L310.16 415.746L301.47 444.086L281.39 509.536L300.58 530.376L355.99 590.526Z" fill="#D0CDE1"/>
<path d="M372.877 415.806L385.631 430.687C390.37 429.783 395.319 428.721 400.416 427.529L396.752 415.806L405.71 426.256C459.707 412.976 526.637 387.155 526.637 387.155C526.637 387.155 454.38 392.453 400.428 380.666C376.558 375.451 351.998 387.284 342.202 409.669C336.509 422.679 337.403 433.952 357.596 433.952C364.419 433.835 371.224 433.195 377.949 432.037L372.877 415.806Z" fill="#6C63FF"/>
<path d="M663.65 660.386V666.456C663.654 668.122 663.345 669.774 662.74 671.326C662.472 672.018 662.147 672.687 661.77 673.326C660.578 675.327 658.887 676.983 656.862 678.133C654.838 679.283 652.549 679.887 650.22 679.886H203.67C201.342 679.887 199.053 679.283 197.028 678.133C195.003 676.983 193.312 675.327 192.12 673.326C191.743 672.687 191.419 672.018 191.15 671.326C190.546 669.774 190.237 668.122 190.24 666.456V660.386C190.24 658.622 190.587 656.876 191.262 655.246C191.936 653.616 192.926 652.136 194.173 650.889C195.42 649.641 196.901 648.652 198.53 647.977C200.16 647.303 201.906 646.956 203.67 646.956H229.41V644.126C229.41 644.052 229.425 643.98 229.453 643.912C229.481 643.844 229.522 643.782 229.574 643.73C229.626 643.678 229.688 643.636 229.756 643.608C229.824 643.58 229.897 643.566 229.97 643.566H243.4C243.474 643.566 243.547 643.58 243.615 643.608C243.683 643.636 243.745 643.678 243.797 643.73C243.849 643.782 243.89 643.844 243.918 643.912C243.946 643.98 243.96 644.052 243.96 644.126V646.956H252.35V644.126C252.35 644.052 252.365 643.98 252.393 643.912C252.421 643.844 252.462 643.782 252.514 643.73C252.566 643.678 252.628 643.636 252.696 643.608C252.764 643.58 252.837 643.566 252.91 643.566H266.34C266.414 643.566 266.487 643.58 266.555 643.608C266.623 643.636 266.684 643.678 266.736 643.73C266.789 643.782 266.83 643.844 266.858 643.912C266.886 643.98 266.9 644.052 266.9 644.126V646.956H275.3V644.126C275.3 644.052 275.315 643.98 275.343 643.912C275.371 643.844 275.412 643.782 275.464 643.73C275.516 643.678 275.578 643.636 275.646 643.608C275.714 643.58 275.787 643.566 275.86 643.566H289.29C289.364 643.566 289.437 643.58 289.505 643.608C289.573 643.636 289.634 643.678 289.686 643.73C289.739 643.782 289.78 643.844 289.808 643.912C289.836 643.98 289.85 644.052 289.85 644.126V646.956H298.24V644.126C298.24 644.052 298.255 643.98 298.283 643.912C298.311 643.844 298.352 643.782 298.404 643.73C298.456 643.678 298.518 643.636 298.586 643.608C298.654 643.58 298.727 643.566 298.8 643.566H312.23C312.304 643.566 312.377 643.58 312.445 643.608C312.513 643.636 312.574 643.678 312.626 643.73C312.678 643.782 312.72 643.844 312.748 643.912C312.776 643.98 312.79 644.052 312.79 644.126V646.956H321.18V644.126C321.18 644.052 321.194 643.98 321.223 643.912C321.251 643.844 321.292 643.782 321.344 643.73C321.396 643.678 321.458 643.636 321.526 643.608C321.594 643.58 321.667 643.566 321.74 643.566H335.17C335.244 643.566 335.317 643.58 335.385 643.608C335.453 643.636 335.514 643.678 335.566 643.73C335.618 643.782 335.66 643.844 335.688 643.912C335.716 643.98 335.73 644.052 335.73 644.126V646.956H344.13V644.126C344.13 644.052 344.145 643.98 344.173 643.912C344.201 643.844 344.242 643.782 344.294 643.73C344.346 643.678 344.408 643.636 344.476 643.608C344.544 643.58 344.617 643.566 344.69 643.566H358.12C358.194 643.566 358.267 643.58 358.335 643.608C358.403 643.636 358.464 643.678 358.516 643.73C358.569 643.782 358.61 643.844 358.638 643.912C358.666 643.98 358.68 644.052 358.68 644.126V646.956H367.07V644.126C367.07 644.052 367.085 643.98 367.113 643.912C367.141 643.844 367.182 643.782 367.234 643.73C367.286 643.678 367.348 643.636 367.416 643.608C367.484 643.58 367.557 643.566 367.63 643.566H472.83C472.904 643.566 472.977 643.58 473.045 643.608C473.113 643.636 473.174 643.678 473.227 643.73C473.279 643.782 473.32 643.844 473.348 643.912C473.376 643.98 473.39 644.052 473.39 644.126V646.956H481.79V644.126C481.79 644.052 481.804 643.98 481.833 643.912C481.861 643.844 481.902 643.782 481.954 643.73C482.006 643.678 482.068 643.636 482.136 643.608C482.204 643.58 482.277 643.566 482.35 643.566H495.78C495.928 643.567 496.07 643.627 496.175 643.732C496.279 643.836 496.339 643.978 496.34 644.126V646.956H504.73V644.126C504.73 644.052 504.745 643.98 504.773 643.912C504.801 643.844 504.842 643.782 504.894 643.73C504.946 643.678 505.008 643.636 505.076 643.608C505.144 643.58 505.217 643.566 505.29 643.566H518.72C518.794 643.566 518.867 643.58 518.935 643.608C519.003 643.636 519.065 643.678 519.117 643.73C519.169 643.782 519.21 643.844 519.238 643.912C519.266 643.98 519.28 644.052 519.28 644.126V646.956H527.67V644.126C527.67 644.052 527.685 643.98 527.713 643.912C527.741 643.844 527.782 643.782 527.834 643.73C527.886 643.678 527.948 643.636 528.016 643.608C528.084 643.58 528.157 643.566 528.23 643.566H541.66C541.734 643.566 541.807 643.58 541.875 643.608C541.943 643.636 542.005 643.678 542.057 643.73C542.109 643.782 542.15 643.844 542.178 643.912C542.206 643.98 542.22 644.052 542.22 644.126V646.956H550.62V644.126C550.62 644.052 550.635 643.98 550.663 643.912C550.691 643.844 550.732 643.782 550.784 643.73C550.836 643.678 550.898 643.636 550.966 643.608C551.034 643.58 551.107 643.566 551.18 643.566H564.61C564.757 643.568 564.898 643.628 565.001 643.733C565.104 643.838 565.161 643.979 565.16 644.126V646.956H573.56V644.126C573.56 644.052 573.575 643.98 573.603 643.912C573.631 643.844 573.672 643.782 573.724 643.73C573.776 643.678 573.838 643.636 573.906 643.608C573.974 643.58 574.047 643.566 574.12 643.566H587.55C587.624 643.566 587.697 643.58 587.765 643.608C587.833 643.636 587.895 643.678 587.947 643.73C587.999 643.782 588.04 643.844 588.068 643.912C588.096 643.98 588.11 644.052 588.11 644.126V646.956H596.5V644.126C596.5 644.052 596.515 643.98 596.543 643.912C596.571 643.844 596.612 643.782 596.664 643.73C596.716 643.678 596.778 643.636 596.846 643.608C596.914 643.58 596.987 643.566 597.06 643.566H610.49C610.564 643.566 610.637 643.58 610.705 643.608C610.773 643.636 610.835 643.678 610.887 643.73C610.939 643.782 610.98 643.844 611.008 643.912C611.036 643.98 611.05 644.052 611.05 644.126V646.956H650.22C651.984 646.956 653.731 647.303 655.36 647.977C656.99 648.652 658.471 649.641 659.718 650.889C660.965 652.136 661.954 653.616 662.629 655.246C663.304 656.876 663.651 658.622 663.65 660.386V660.386Z" fill="#3F3D56"/>
<path d="M753 675H105V673H753V675Z" fill="#3F3D56"/>
<path d="M627.695 404.757H461.252V401.326H385.78V404.757H218.651C215.665 404.757 212.801 405.943 210.69 408.054C208.579 410.166 207.392 413.029 207.392 416.015V643.927C207.392 646.913 208.578 649.776 210.69 651.888C212.801 653.999 215.665 655.185 218.651 655.185H627.695C630.68 655.185 633.544 653.999 635.656 651.888C637.767 649.776 638.953 646.913 638.953 643.927V416.015C638.953 414.537 638.662 413.073 638.096 411.707C637.53 410.341 636.701 409.1 635.656 408.054C634.61 407.009 633.369 406.179 632.003 405.614C630.637 405.048 629.173 404.757 627.695 404.757V404.757Z" fill="#3F3D56"/>
<path d="M423.5 509.326C437.307 509.326 448.5 498.133 448.5 484.326C448.5 470.519 437.307 459.326 423.5 459.326C409.693 459.326 398.5 470.519 398.5 484.326C398.5 498.133 409.693 509.326 423.5 509.326Z" stroke="#D0CDE1" stroke-width="2" stroke-miterlimit="10"/>
<path d="M423.5 509.326C437.307 509.326 448.5 498.133 448.5 484.326C448.5 470.519 437.307 459.326 423.5 459.326C409.693 459.326 398.5 470.519 398.5 484.326C398.5 498.133 409.693 509.326 423.5 509.326Z" fill="#D0CDE1"/>
<path d="M148 659H120V687H148V659Z" fill="#D0CDE1"/>
<path d="M734 660H706V688H734V660Z" fill="#D0CDE1"/>
</svg>
